<svg width="17" height="18" viewBox="0 0 17 18" fill="none" xmlns="http://www.w3.org/2000/svg">
<path d="M8.65987 4.60791C6.28487 4.60791 4.39229 6.5376 4.39229 8.87549C4.39229 11.2505 6.28487 13.1431 8.65987 13.1431C10.9978 13.1431 12.9274 11.2505 12.9274 8.87549C12.9274 6.5376 10.9978 4.60791 8.65987 4.60791ZM8.65987 11.6587C7.13839 11.6587 5.87667 10.4341 5.87667 8.87549C5.87667 7.354 7.10128 6.12939 8.65987 6.12939C10.1814 6.12939 11.406 7.354 11.406 8.87549C11.406 10.4341 10.1814 11.6587 8.65987 11.6587ZM14.0778 4.45947C14.0778 3.90283 13.6325 3.45752 13.0759 3.45752C12.5192 3.45752 12.0739 3.90283 12.0739 4.45947C12.0739 5.01611 12.5192 5.46143 13.0759 5.46143C13.6325 5.46143 14.0778 5.01611 14.0778 4.45947ZM16.8982 5.46143C16.8239 4.12549 16.5271 2.93799 15.5622 1.97314C14.5974 1.0083 13.4099 0.711426 12.0739 0.637207C10.7009 0.562988 6.58175 0.562988 5.2087 0.637207C3.87276 0.711426 2.72237 1.0083 1.72042 1.97314C0.755574 2.93799 0.458699 4.12549 0.38448 5.46143C0.310262 6.83447 0.310262 10.9536 0.38448 12.3267C0.458699 13.6626 0.755574 14.813 1.72042 15.8149C2.72237 16.7798 3.87276 17.0767 5.2087 17.1509C6.58175 17.2251 10.7009 17.2251 12.0739 17.1509C13.4099 17.0767 14.5974 16.7798 15.5622 15.8149C16.5271 14.813 16.8239 13.6626 16.8982 12.3267C16.9724 10.9536 16.9724 6.83447 16.8982 5.46143ZM15.1169 13.7739C14.8571 14.5161 14.2634 15.0728 13.5583 15.3696C12.445 15.8149 9.84737 15.7036 8.65987 15.7036C7.43526 15.7036 4.83761 15.8149 3.76143 15.3696C3.01925 15.0728 2.46261 14.5161 2.16573 13.7739C1.72042 12.6978 1.83175 10.1001 1.83175 8.87549C1.83175 7.68799 1.72042 5.09033 2.16573 3.97705C2.46261 3.27197 3.01925 2.71533 3.76143 2.41846C4.83761 1.97314 7.43526 2.08447 8.65987 2.08447C9.84737 2.08447 12.445 1.97314 13.5583 2.41846C14.2634 2.67822 14.82 3.27197 15.1169 3.97705C15.5622 5.09033 15.4509 7.68799 15.4509 8.87549C15.4509 10.1001 15.5622 12.6978 15.1169 13.7739Z" fill="#292F36"/>
</svg>
