<svg width="17" height="16" viewBox="0 0 17 16" fill="none" xmlns="http://www.w3.org/2000/svg">
<path d="M3.90702 16.0005V5.48877H0.637485V16.0005H3.90702ZM2.25467 4.08252C3.30936 4.08252 4.15311 3.20361 4.15311 2.14893C4.15311 1.12939 3.30936 0.285645 2.25467 0.285645C1.23514 0.285645 0.391391 1.12939 0.391391 2.14893C0.391391 3.20361 1.23514 4.08252 2.25467 4.08252ZM16.1062 16.0005H16.1414V10.2349C16.1414 7.42236 15.5086 5.24268 12.2039 5.24268C10.6219 5.24268 9.56717 6.12158 9.11014 6.93018H9.07498V5.48877H5.94608V16.0005H9.21561V10.7974C9.21561 9.42627 9.4617 8.12549 11.1492 8.12549C12.8367 8.12549 12.8719 9.67236 12.8719 10.9028V16.0005H16.1062Z" fill="#292F36"/>
</svg>
