<svg width="19" height="16" viewBox="0 0 19 16" fill="none" xmlns="http://www.w3.org/2000/svg">
<path d="M16.6559 4.59424C17.359 4.06689 17.9918 3.43408 18.484 2.6958C17.8512 2.97705 17.1129 3.18799 16.3746 3.2583C17.1481 2.80127 17.7106 2.09814 17.9918 1.21924C17.2887 1.64111 16.4801 1.95752 15.6715 2.1333C14.9684 1.39502 14.0192 0.973145 12.9645 0.973145C10.9254 0.973145 9.27308 2.62549 9.27308 4.66455C9.27308 4.9458 9.30824 5.22705 9.37855 5.5083C6.31995 5.33252 3.57777 3.85596 1.74964 1.64111C1.43324 2.16846 1.25745 2.80127 1.25745 3.50439C1.25745 4.77002 1.89027 5.89502 2.9098 6.56299C2.31214 6.52783 1.71449 6.38721 1.2223 6.10596V6.14111C1.2223 7.93408 2.48792 9.41064 4.17542 9.76221C3.89417 9.83252 3.54261 9.90283 3.2262 9.90283C2.98011 9.90283 2.76917 9.86768 2.52308 9.83252C2.98011 11.3091 4.3512 12.3638 5.96839 12.3989C4.70277 13.3833 3.12074 13.981 1.39808 13.981C1.08167 13.981 0.800423 13.9458 0.519173 13.9106C2.13636 14.9653 4.06995 15.563 6.17933 15.563C12.9645 15.563 16.6559 9.97314 16.6559 5.08643C16.6559 4.91064 16.6559 4.77002 16.6559 4.59424Z" fill="#292F36"/>
</svg>
