<svg width="87" height="94" viewBox="0 0 87 94" fill="none" xmlns="http://www.w3.org/2000/svg">
<path d="M87 20.5625V0H57.3407V32.3125H51.4088V49.9375H25.7053V67.5625H0V94H80.0801V32.3125H60.3066V20.5625H87ZM60.3066 2.9375H84.0341V17.625H60.3066V2.9375ZM28.6713 52.875H51.4107V57.7714H28.6713V52.875ZM2.96593 70.5H25.7053V75.3964H2.96593V70.5ZM77.1142 91.0625H2.96593V78.3339H25.7053V84.6991H28.6713V60.7089H51.4107V70.9902H54.3766V43.0839H77.1142V91.0625ZM77.1142 35.25V40.1464H54.3748V35.25H77.1142Z" fill="#CDA274"/>
<path d="M79.5859 5.875H72.666V8.8125H79.5859V5.875Z" fill="#CDA274"/>
<path d="M79.5855 11.75H64.7559V14.6875H79.5855V11.75Z" fill="#CDA274"/>
<path d="M32.131 10.7714V13.7089H40.4152L3.40039 50.3671L5.49879 52.4454L42.5117 15.7854V22.0312H45.4777V10.7714H32.131Z" fill="#CDA274"/>
<path d="M9.39145 81.2714H5.4375V84.2089H9.39145V81.2714Z" fill="#CDA274"/>
<path d="M23.2333 81.2714H19.2793V84.2089H23.2333V81.2714Z" fill="#CDA274"/>
<path d="M35.0965 63.6464H31.1426V66.5839H35.0965V63.6464Z" fill="#CDA274"/>
<path d="M48.9383 63.6464H44.9844V66.5839H48.9383V63.6464Z" fill="#CDA274"/>
<path d="M60.8016 46.0215H56.8477V48.959H60.8016V46.0215Z" fill="#CDA274"/>
<path d="M74.6415 46.0215H70.6875V48.959H74.6415V46.0215Z" fill="#CDA274"/>
</svg>
